<svg width="29" height="29" viewBox="0 0 29 29" fill="none" xmlns="http://www.w3.org/2000/svg">
<path d="M26 17.9999H28C28.2652 17.9999 28.5196 17.8946 28.7071 17.7071C28.8946 17.5195 29 17.2652 29 16.9999C29 16.7347 28.8946 16.4804 28.7071 16.2928C28.5196 16.1053 28.2652 15.9999 28 15.9999H26V13.9999H28C28.2652 13.9999 28.5196 13.8946 28.7071 13.7071C28.8946 13.5195 29 13.2652 29 12.9999C29 12.7347 28.8946 12.4804 28.7071 12.2928C28.5196 12.1053 28.2652 11.9999 28 11.9999H25.95C25.7291 9.80514 24.7866 7.74555 23.27 6.1437L25.7075 3.70745C25.8004 3.61454 25.8741 3.50424 25.9244 3.38284C25.9747 3.26145 26.0006 3.13134 26.0006 2.99995C26.0006 2.86855 25.9747 2.73844 25.9244 2.61705C25.8741 2.49566 25.8004 2.38536 25.7075 2.29245C25.6146 2.19954 25.5043 2.12583 25.3829 2.07555C25.2615 2.02527 25.1314 1.99939 25 1.99939C24.8686 1.99939 24.7385 2.02527 24.6171 2.07555C24.4957 2.12584 24.3854 2.19954 24.2925 2.29245L21.7563 4.82995C20.073 3.63922 18.0619 2.99981 16 2.99981C13.9381 2.99981 11.927 3.63922 10.2437 4.82995L7.7075 2.29245C7.51986 2.10481 7.26536 1.99939 7 1.99939C6.73464 1.99939 6.48014 2.10481 6.2925 2.29245C6.10486 2.48009 5.99944 2.73458 5.99944 2.99995C5.99944 3.26531 6.10486 3.51981 6.2925 3.70745L8.73 6.1437C7.21341 7.74555 6.27088 9.80514 6.05 11.9999H4C3.73478 11.9999 3.48043 12.1053 3.29289 12.2928C3.10536 12.4804 3 12.7347 3 12.9999C3 13.2652 3.10536 13.5195 3.29289 13.7071C3.48043 13.8946 3.73478 13.9999 4 13.9999H6V15.9999H4C3.73478 15.9999 3.48043 16.1053 3.29289 16.2928C3.10536 16.4804 3 16.7347 3 16.9999C3 17.2652 3.10536 17.5195 3.29289 17.7071C3.48043 17.8946 3.73478 17.9999 4 17.9999H6V18.9999C6 19.3374 6.0175 19.6712 6.05 19.9999H4C3.73478 19.9999 3.48043 20.1053 3.29289 20.2928C3.10536 20.4804 3 20.7347 3 20.9999C3 21.2652 3.10536 21.5195 3.29289 21.7071C3.48043 21.8946 3.73478 21.9999 4 21.9999H6.46C7.09808 24.0304 8.36733 25.8042 10.0831 27.0635C11.7989 28.3228 13.8717 29.0019 16 29.0019C18.1283 29.0019 20.2011 28.3228 21.9169 27.0635C23.6327 25.8042 24.9019 24.0304 25.54 21.9999H28C28.2652 21.9999 28.5196 21.8946 28.7071 21.7071C28.8946 21.5195 29 21.2652 29 20.9999C29 20.7347 28.8946 20.4804 28.7071 20.2928C28.5196 20.1053 28.2652 19.9999 28 19.9999H25.95C25.9825 19.6712 26 19.3374 26 18.9999V17.9999ZM16 4.99995C17.9476 5.00237 19.8276 5.71443 21.2882 7.00287C22.7487 8.29131 23.6897 10.0678 23.935 11.9999H8.06C8.30542 10.067 9.24712 8.28978 10.7087 7.00122C12.1703 5.71267 14.0515 5.00115 16 4.99995ZM17 26.9349V16.9999C17 16.7347 16.8946 16.4804 16.7071 16.2928C16.5196 16.1053 16.2652 15.9999 16 15.9999C15.7348 15.9999 15.4804 16.1053 15.2929 16.2928C15.1054 16.4804 15 16.7347 15 16.9999V26.9349C13.0679 26.6896 11.2914 25.7487 10.0029 24.2881C8.71449 22.8276 8.00242 20.9476 8 18.9999V13.9999H24V18.9999C23.9976 20.9476 23.2855 22.8276 21.9971 24.2881C20.7086 25.7487 18.9321 26.6896 17 26.9349Z" fill="#1C1C1C"/>
</svg>
